# xmcd
#
# Track frame offsets: 
#        150
#        22357
#        41882
#        58586
#        81580
#        98361
#        122379
#        138017
#        164021
#        179729
#        199637
#        228852
#        246928
#        272583
#        288709
#        306507
#
# Disc length: 4524 seconds
#
# Revision: 0
# Processed by: cddbd v1.5.1PL2 Copyright (c) Steve Scherf et al.
# Submitted via: ExactAudioCopy v0.95b4
#
DISCID=ec11aa10
DTITLE=Edson Lima\\ - Romântico
DYEAR=2005
DGENRE=Sertanejo
TTITLE0=Os Corações Não São Iguais
TTITLE1=Essa Tal Liberdade
TTITLE2=Seu Melhor Amigo
TTITLE3=Retrovisor
TTITLE4=Perigo
TTITLE5=Tudo Deu Em Nada
TTITLE6=Não Aprendi Dizer Adeus
TTITLE7=Vivendo Por Viver
TTITLE8=O Nosso Amor É Ouro
TTITLE9=Sábado
TTITLE10=Agüenta Coração
TTITLE11=Um Certo Alguém
TTITLE12=Deusa de Itamaracá
TTITLE13=Amo Você
TTITLE14=Casinha Branca
TTITLE15=Você Vai Ver, Tudo de Novo, Como Um Anjo
EXTD=
EXTT0=
EXTT1=
EXTT2=
EXTT3=
EXTT4=
EXTT5=
EXTT6=
EXTT7=
EXTT8=
EXTT9=
EXTT10=
EXTT11=
EXTT12=
EXTT13=
EXTT14=
EXTT15=
PLAYORDER=
